<?xml version="1.0" standalone="no"?>
<!DOCTYPE svg PUBLIC "-//W3C//DTD SVG 20010904//EN"
 "http://www.w3.org/TR/2001/REC-SVG-20010904/DTD/svg10.dtd">
<svg version="1.0" xmlns="http://www.w3.org/2000/svg"
 width="32.000000pt" height="32.000000pt" viewBox="0 0 32.000000 32.000000"
 preserveAspectRatio="xMidYMid meet">
<metadata>
Created by potrace 1.10, written by Peter Selinger 2001-2011
</metadata>
<g transform="translate(0.000000,32.000000) scale(0.100000,-0.100000)"
fill="#000000" stroke="none">
<path d="M167 313 c32 -6 80 -57 88 -93 9 -41 -27 -115 -63 -129 -26 -11 -25
-11 8 -6 50 7 82 35 98 83 12 38 12 45 -5 75 -20 34 -93 78 -128 76 -18 -2
-18 -2 2 -6z m116 -146 c-3 -14 -14 -34 -26 -44 -21 -18 -21 -18 -4 7 9 13 17
43 18 65 0 31 2 36 9 19 4 -11 6 -32 3 -47z"/>
<path d="M64 285 c-18 -13 -39 -43 -48 -65 -22 -56 -19 -73 5 -28 44 84 158
90 204 10 l16 -27 -6 34 c-9 55 -37 80 -110 95 -23 5 -37 0 -61 -19z m91 -4
c13 -5 3 -8 -30 -8 -33 0 -43 3 -30 8 11 4 25 8 30 8 6 0 19 -4 30 -8z"/>
<path d="M81 227 c-31 -16 -58 -54 -64 -93 -8 -43 24 -91 76 -114 55 -26 83
-25 35 1 -42 21 -68 63 -68 106 0 43 34 91 72 102 l33 9 -30 1 c-16 0 -41 -5
-54 -12z m-26 -53 c-8 -16 -15 -23 -15 -16 0 17 20 55 26 49 2 -2 -2 -17 -11
-33z m-18 -56 c-3 -8 -6 -5 -6 6 -1 11 2 17 5 13 3 -3 4 -12 1 -19z"/>
<path d="M131 186 c-16 -19 -11 -46 12 -60 25 -16 52 4 52 40 0 24 -5 30 -26
32 -14 2 -31 -4 -38 -12z m49 -11 c15 -18 5 -35 -21 -35 -12 0 -19 7 -19 18 0
33 20 42 40 17z"/>
<path d="M84 116 c7 -49 36 -81 89 -94 35 -9 46 -8 73 9 18 11 42 40 54 65 26
52 21 70 -6 25 -19 -32 -68 -61 -104 -61 -35 0 -81 30 -96 63 l-15 32 5 -39z
m96 -75 c24 -10 24 -10 -5 -4 -16 3 -37 12 -45 20 -13 14 -13 14 5 5 11 -5 31
-15 45 -21z"/>
</g>
</svg>
