<svg xmlns="http://www.w3.org/2000/svg" xmlns:svg="http://www.w3.org/2000/svg" width="25" height="20" viewBox="0 0 25 20">
    <g>
        <path fill="#eb524f" d="m8.66591,0.59132c1.07629,0.32145 1.41031,1.15185 1.41031,2.09835c-0.00928,0.75005 -0.10206,1.5001 -0.28762,2.23228c-0.39897,1.66975 -0.89073,3.32165 -1.29897,4.98247c-0.33402,1.36616 -0.6402,2.75018 -0.64949,4.16098c0.00928,0.38395 0.07423,0.76791 0.18557,1.134c0.21341,0.73219 0.85361,0.78577 1.33608,0.33931c0.30619,-0.28574 0.58454,-0.58932 0.83505,-0.91971c1.20619,-1.54475 2.2732,-3.18771 3.18249,-4.91103c0.88145,-1.6519 2.89486,-5.38428 3.01548,-5.60751c0.63093,-1.11614 2.37527,-0.92863 2.90414,0.16073c0.29691,0.58932 0.46392,1.24115 0.49175,1.89298c0.04639,1.41081 0.18557,5.34856 0.25051,5.9111c0.12062,1.08936 0.84433,1.43759 1.80928,0.83041c0.58454,-0.3661 1.11341,-0.83041 1.64227,-1.26794c0.49175,-0.41967 0.75154,-0.37502 0.99278,0.21431c0.21341,0.51789 0.12062,1.03578 -0.05566,1.52689c-0.59382,1.66083 -1.88351,2.54481 -3.60002,2.90197c-0.54743,0.11608 -1.11341,0.125 -1.67011,0.03572c-1.23403,-0.19645 -2.02269,-0.88398 -2.49589,-1.94656c-0.45464,-1.02685 -0.59382,-3.94668 -0.69588,-4.32171c-0.16701,0.33931 -2.1433,4.25921 -3.18249,5.75037c-0.64949,0.95542 -1.43815,1.82154 -2.34743,2.56267c-0.90001,0.72326 -1.92062,1.16971 -3.11754,1.19651c-1.44742,0.03572 -2.49589,-0.59825 -3.21961,-1.7769c-0.46392,-0.75898 -0.65877,-1.60725 -0.72371,-2.4823c-0.09278,-1.2233 0.11134,-2.41981 0.38969,-3.61631c0.09278,-0.38395 0.15773,-0.77684 0.25979,-1.26794c-0.39897,0.19645 -0.65877,0.37502 -0.95567,0.47324c-0.35258,0.11608 -0.73299,0.23216 -1.10413,0.22323c-1.31753,-0.03572 -1.51238,-1.43759 -1.51238,-1.66975c0.44537,-0.33038 0.91856,-0.63397 1.32681,-0.99114c1.94847,-1.69654 3.41445,-3.73238 4.47218,-6.0361c0.35258,-0.75898 0.78866,-1.41081 1.56805,-1.81262c0.25979,-0.10715 0.49175,-0.11608 0.84433,0l0,0l0,0.00002l0.00002,-0.00003z"/>
    </g>
</svg>